# MagicaVoxel @ Ephtracy

# group
o 

# material
mtllib WinterCat.mtl
usemtl palette

# normals
vn -1 0 0
vn 1 0 0
vn 0 0 1
vn 0 0 -1
vn 0 -1 0
vn 0 1 0

# texcoords
vt 0.00195313 0.5
vt 0.0410156 0.5
vt 0.0644531 0.5
vt 0.0917969 0.5
vt 0.0996094 0.5
vt 0.111328 0.5
vt 0.970703 0.5
vt 0.994141 0.5

# verts
v -5 5 1
v -5 5 -1
v -5 5.5 1
v -5 5.5 -1
v -5 6 1
v -5 6 -1
v -5 6.5 1
v -5 6.5 -1
v -5 7 1
v -5 7 -1
v -5 7.5 1
v -5 7.5 0.5
v -5 7.5 -0.5
v -5 7.5 -1
v -5 8 1
v -5 8 0.5
v -5 8 -0.5
v -5 8 -1
v -5 8.5 1
v -5 8.5 -1
v -5 9 1
v -5 9 -1
v -5 9.5 1
v -5 9.5 -1
v -3 0 4
v -3 0 2
v -3 0 -2
v -3 0 -4
v -3 0.5 4
v -3 0.5 2
v -3 0.5 -2
v -3 0.5 -4
v -3 1 2
v -3 1 -2
v -3 2 2
v -3 2 -2
v -3 5 1
v -3 5 -1
v -3 6.5 1
v -3 6.5 -1
v -3 7.5 4
v -3 7.5 -4
v 2.5 0 4
v 2.5 0 2
v 2.5 0 -2
v 2.5 0 -4
v 2.5 0.5 4
v 2.5 0.5 3
v 2.5 0.5 2
v 2.5 0.5 -2
v 2.5 0.5 -3
v 2.5 0.5 -4
v 2.5 1 3
v 2.5 1 -3
v 2.5 1.4 3
v 2.5 1.4 2
v 2.5 1.4 -2
v 2.5 1.4 -3
v 3.5 1 2
v 3.5 1 -2
v 3.5 1.4 2
v 3.5 1.4 -2
v 3.5 7.5 4
v 3.5 7.5 1.5
v 3.5 7.5 -1.5
v 3.5 7.5 -4
v 3.5 9 4
v 3.5 9 1.5
v 3.5 9 -1.5
v 3.5 9 -4
v 4 3 5
v 4 3 4
v 4 3 -4
v 4 3 -5
v 4 3.5 5
v 4 3.5 4
v 4 3.5 -4
v 4 3.5 -5
v 4 4 5
v 4 4 4
v 4 4 -4
v 4 4 -5
v 4 4.5 5
v 4 4.5 4
v 4 4.5 -4
v 4 4.5 -5
v -3.5 6.5 1
v -3.5 6.5 -1
v -3.5 7 1
v -3.5 7 -1
v -3.5 7.5 1
v -3.5 7.5 -1
v -3.5 8 1
v -3.5 8 -1
v -2.5 1 2
v -2.5 1 -2
v -2.5 1.4 2
v -2.5 1.4 -2
v -1.5 0 4
v -1.5 0 2
v -1.5 0 -2
v -1.5 0 -4
v -1.5 0.5 4
v -1.5 0.5 3
v -1.5 0.5 2
v -1.5 0.5 -2
v -1.5 0.5 -3
v -1.5 0.5 -4
v -1.5 1 3
v -1.5 1 -3
v -1.5 1.4 3
v -1.5 1.4 2
v -1.5 1.4 -2
v -1.5 1.4 -3
v 0 8 1
v 0 8 -1
v 0 9.5 1
v 0 9.5 -1
v 4.5 0 4
v 4.5 0 2
v 4.5 0 -2
v 4.5 0 -4
v 4.5 0.5 4
v 4.5 0.5 2
v 4.5 0.5 -2
v 4.5 0.5 -4
v 4.5 1 2
v 4.5 1 -2
v 4.5 2 2
v 4.5 2 -2
v 4.5 3 5
v 4.5 3 4
v 4.5 3 2
v 4.5 3 0.5
v 4.5 3 -0.5
v 4.5 3 -2
v 4.5 3 -4
v 4.5 3 -5
v 4.5 3.5 5
v 4.5 3.5 4
v 4.5 3.5 0.5
v 4.5 3.5 -0.5
v 4.5 3.5 -4
v 4.5 3.5 -5
v 4.5 4 5
v 4.5 4 4
v 4.5 4 -4
v 4.5 4 -5
v 4.5 4.5 5
v 4.5 4.5 4
v 4.5 4.5 3
v 4.5 4.5 2
v 4.5 4.5 1
v 4.5 4.5 0.5
v 4.5 4.5 -0.5
v 4.5 4.5 -1
v 4.5 4.5 -2
v 4.5 4.5 -3
v 4.5 4.5 -4
v 4.5 4.5 -5
v 4.5 5 2.5
v 4.5 5 1
v 4.5 5 -1.5
v 4.5 5 -3
v 4.5 6 1.5
v 4.5 6 1
v 4.5 6 -2.5
v 4.5 6 -3
v 4.5 6.5 3
v 4.5 6.5 2.5
v 4.5 6.5 1.5
v 4.5 6.5 1
v 4.5 6.5 -1
v 4.5 6.5 -1.5
v 4.5 6.5 -2.5
v 4.5 6.5 -3
v 4.5 7.5 3.5
v 4.5 7.5 2
v 4.5 7.5 1.5
v 4.5 7.5 -1.5
v 4.5 7.5 -2
v 4.5 7.5 -3.5
v 4.5 8.5 3.5
v 4.5 8.5 2
v 4.5 8.5 -2
v 4.5 8.5 -3.5
v 4.5 9 4
v 4.5 9 1.5
v 4.5 9 -1.5
v 4.5 9 -4
v 5 3 2
v 5 3 0.5
v 5 3 -0.5
v 5 3 -2
v 5 3.5 0.5
v 5 3.5 -0.5
v 5 4 0.5
v 5 4 -0.5
v 5 4.5 2
v 5 4.5 0.5
v 5 4.5 -0.5
v 5 4.5 -2
v 4 3 5
v 4 3.5 5
v 4 4 5
v 4 4.5 5
v 4.5 3 5
v 4.5 3.5 5
v 4.5 4 5
v 4.5 4.5 5
v -3 0 4
v -3 0.5 4
v -3 7.5 4
v -1.5 0 4
v -1.5 0.5 4
v -1.5 1 4
v 2.5 0 4
v 2.5 0.5 4
v 2.5 1 4
v 3.5 7.5 4
v 3.5 9 4
v 4 3 4
v 4 3.5 4
v 4 4 4
v 4 4.5 4
v 4.5 0 4
v 4.5 0.5 4
v 4.5 3 4
v 4.5 3.5 4
v 4.5 4 4
v 4.5 4.5 4
v 4.5 9 4
v 4.5 3 2
v 4.5 4.5 2
v 5 3 2
v 5 4.5 2
v -5 5 1
v -5 5.5 1
v -5 6 1
v -5 6.5 1
v -5 7 1
v -5 7.5 1
v -5 8 1
v -5 8.5 1
v -5 9 1
v -5 9.5 1
v -4.5 5 1
v -4.5 5.5 1
v -4.5 9 1
v -4.5 9.5 1
v -4 5 1
v -4 6 1
v -4 8.5 1
v -4 9.5 1
v -3.5 5 1
v -3.5 6.5 1
v -3.5 7 1
v -3.5 7.5 1
v -3.5 8 1
v -3.5 9.5 1
v -3 5 1
v -3 6.5 1
v -3 8 1
v -3 9.5 1
v -2.5 8 1
v -2.5 9.5 1
v -2 8 1
v -2 9.5 1
v -1.5 8 1
v -1.5 9.5 1
v -1 8 1
v -1 9.5 1
v -0.5 8 1
v -0.5 9.5 1
v 0 8 1
v 0 9.5 1
v 4.5 3 -0.5
v 4.5 3.5 -0.5
v 5 3 -0.5
v 5 3.5 -0.5
v 3.5 7.5 -1.5
v 3.5 9 -1.5
v 4.5 7.5 -1.5
v 4.5 9 -1.5
v -3 0 -2
v -3 0.5 -2
v -3 1 -2
v -2.5 1 -2
v -2.5 1.4 -2
v -1.5 0 -2
v -1.5 0.5 -2
v -1.5 1.4 -2
v 2.5 0 -2
v 2.5 0.5 -2
v 2.5 1.4 -2
v 3.5 1 -2
v 3.5 1.4 -2
v 4.5 0 -2
v 4.5 0.5 -2
v 4.5 1 -2
v -1.5 0.5 -3
v -1.5 1 -3
v -1.5 1.4 -3
v 2.5 0.5 -3
v 2.5 1 -3
v 2.5 1.4 -3
v -1.5 0.5 3
v -1.5 1 3
v -1.5 1.4 3
v 2.5 0.5 3
v 2.5 1 3
v 2.5 1.4 3
v -3 0 2
v -3 0.5 2
v -3 1 2
v -2.5 1 2
v -2.5 1.4 2
v -1.5 0 2
v -1.5 0.5 2
v -1.5 1.4 2
v 2.5 0 2
v 2.5 0.5 2
v 2.5 1.4 2
v 3.5 1 2
v 3.5 1.4 2
v 4.5 0 2
v 4.5 0.5 2
v 4.5 1 2
v 3.5 7.5 1.5
v 3.5 9 1.5
v 4.5 7.5 1.5
v 4.5 9 1.5
v 4.5 3 0.5
v 4.5 3.5 0.5
v 5 3 0.5
v 5 3.5 0.5
v -5 5 -1
v -5 5.5 -1
v -5 6 -1
v -5 6.5 -1
v -5 7 -1
v -5 7.5 -1
v -5 8 -1
v -5 8.5 -1
v -5 9 -1
v -5 9.5 -1
v -4.5 5 -1
v -4.5 5.5 -1
v -4.5 9 -1
v -4.5 9.5 -1
v -4 5 -1
v -4 6 -1
v -4 8.5 -1
v -4 9.5 -1
v -3.5 5 -1
v -3.5 6.5 -1
v -3.5 7 -1
v -3.5 7.5 -1
v -3.5 8 -1
v -3.5 9.5 -1
v -3 5 -1
v -3 6.5 -1
v -3 8 -1
v -3 9.5 -1
v -2.5 8 -1
v -2.5 9.5 -1
v -2 8 -1
v -2 9.5 -1
v -1.5 8 -1
v -1.5 9.5 -1
v -1 8 -1
v -1 9.5 -1
v -0.5 8 -1
v -0.5 9.5 -1
v 0 8 -1
v 0 9.5 -1
v 4.5 3 -2
v 4.5 4.5 -2
v 5 3 -2
v 5 4.5 -2
v -3 0 -4
v -3 0.5 -4
v -3 7.5 -4
v -1.5 0 -4
v -1.5 0.5 -4
v -1.5 1 -4
v 2.5 0 -4
v 2.5 0.5 -4
v 2.5 1 -4
v 3.5 7.5 -4
v 3.5 9 -4
v 4 3 -4
v 4 3.5 -4
v 4 4 -4
v 4 4.5 -4
v 4.5 0 -4
v 4.5 0.5 -4
v 4.5 3 -4
v 4.5 3.5 -4
v 4.5 4 -4
v 4.5 4.5 -4
v 4.5 9 -4
v 4 3 -5
v 4 3.5 -5
v 4 4 -5
v 4 4.5 -5
v 4.5 3 -5
v 4.5 3.5 -5
v 4.5 4 -5
v 4.5 4.5 -5
v -3 0 4
v -1.5 0 4
v 2.5 0 4
v 4.5 0 4
v -3 0 2
v -1.5 0 2
v 2.5 0 2
v 4.5 0 2
v -3 0 -2
v -1.5 0 -2
v 2.5 0 -2
v 4.5 0 -2
v -3 0 -4
v -1.5 0 -4
v 2.5 0 -4
v 4.5 0 -4
v -1.5 0.5 4
v 2.5 0.5 4
v -1.5 0.5 3
v 2.5 0.5 3
v -1.5 0.5 -3
v 2.5 0.5 -3
v -1.5 0.5 -4
v 2.5 0.5 -4
v -3 1 2
v -2.5 1 2
v 3.5 1 2
v 4.5 1 2
v -3 1 -2
v -2.5 1 -2
v 3.5 1 -2
v 4.5 1 -2
v -1.5 1.4 3
v 2.5 1.4 3
v -2.5 1.4 2
v -1.5 1.4 2
v 2.5 1.4 2
v 3.5 1.4 2
v -2.5 1.4 -2
v -1.5 1.4 -2
v 2.5 1.4 -2
v 3.5 1.4 -2
v -1.5 1.4 -3
v 2.5 1.4 -3
v 4 3 5
v 4.5 3 5
v 4 3 4
v 4.5 3 4
v 4.5 3 2
v 5 3 2
v 4.5 3 0.5
v 5 3 0.5
v 4.5 3 -0.5
v 5 3 -0.5
v 4.5 3 -2
v 5 3 -2
v 4 3 -4
v 4.5 3 -4
v 4 3 -5
v 4.5 3 -5
v 4.5 3.5 0.5
v 5 3.5 0.5
v 4.5 3.5 -0.5
v 5 3.5 -0.5
v 4 4 5
v 4.5 4 5
v 4 4 4
v 4.5 4 4
v 4 4 -4
v 4.5 4 -4
v 4 4 -5
v 4.5 4 -5
v -5 5 1
v -4.5 5 1
v -4 5 1
v -3.5 5 1
v -3 5 1
v -5 5 -1
v -4.5 5 -1
v -4 5 -1
v -3.5 5 -1
v -3 5 -1
v -3.5 8 1
v -3 8 1
v -2.5 8 1
v -2 8 1
v -1.5 8 1
v -1 8 1
v -0.5 8 1
v 0 8 1
v -3.5 8 -1
v -3 8 -1
v -2.5 8 -1
v -2 8 -1
v -1.5 8 -1
v -1 8 -1
v -0.5 8 -1
v 0 8 -1
v 4 3.5 5
v 4.5 3.5 5
v 4 3.5 4
v 4.5 3.5 4
v 4 3.5 -4
v 4.5 3.5 -4
v 4 3.5 -5
v 4.5 3.5 -5
v 4 4.5 5
v 4.5 4.5 5
v 4 4.5 4
v 4.5 4.5 4
v 4.5 4.5 2
v 5 4.5 2
v 4.5 4.5 1
v 4.5 4.5 0.5
v 5 4.5 0.5
v 4.5 4.5 -0.5
v 5 4.5 -0.5
v 4.5 4.5 -1
v 4.5 4.5 -2
v 5 4.5 -2
v 4 4.5 -4
v 4.5 4.5 -4
v 4 4.5 -5
v 4.5 4.5 -5
v -3.5 6.5 1
v -3 6.5 1
v -3.5 6.5 -1
v -3 6.5 -1
v -3 7.5 4
v 3.5 7.5 4
v -2 7.5 2.5
v -1 7.5 2.5
v 0 7.5 2.5
v 1 7.5 2.5
v 2 7.5 2.5
v 3 7.5 2.5
v 3.5 7.5 1.5
v 4.5 7.5 1.5
v 3.5 7.5 -1.5
v 4.5 7.5 -1.5
v -2 7.5 -2.5
v -1 7.5 -2.5
v 0 7.5 -2.5
v 1 7.5 -2.5
v 2 7.5 -2.5
v 3 7.5 -2.5
v -3 7.5 -4
v 3.5 7.5 -4
v 3.5 9 4
v 4.5 9 4
v 3.5 9 1.5
v 4.5 9 1.5
v 3.5 9 -1.5
v 4.5 9 -1.5
v 3.5 9 -4
v 4.5 9 -4
v -5 9.5 1
v -4.5 9.5 1
v -4 9.5 1
v -3.5 9.5 1
v -3 9.5 1
v -2.5 9.5 1
v -2 9.5 1
v -1.5 9.5 1
v -1 9.5 1
v -0.5 9.5 1
v 0 9.5 1
v -3.5 9.5 0.5
v -3 9.5 0.5
v -1.5 9.5 0.5
v -1 9.5 0.5
v -3.5 9.5 -0.5
v -3 9.5 -0.5
v -1.5 9.5 -0.5
v -1 9.5 -0.5
v -5 9.5 -1
v -4.5 9.5 -1
v -4 9.5 -1
v -3.5 9.5 -1
v -3 9.5 -1
v -2.5 9.5 -1
v -2 9.5 -1
v -1.5 9.5 -1
v -1 9.5 -1
v -0.5 9.5 -1
v 0 9.5 -1

# faces
f 3/7/1 2/7/1 1/7/1
f 4/7/1 2/7/1 3/7/1
f 5/6/1 4/6/1 3/6/1
f 6/6/1 4/6/1 5/6/1
f 7/7/1 6/7/1 5/7/1
f 8/7/1 6/7/1 7/7/1
f 9/6/1 8/6/1 7/6/1
f 10/6/1 8/6/1 9/6/1
f 11/7/1 10/7/1 9/7/1
f 12/7/1 10/7/1 11/7/1
f 13/7/1 10/7/1 12/7/1
f 14/7/1 10/7/1 13/7/1
f 15/6/1 12/6/1 11/6/1
f 16/7/1 13/7/1 12/7/1
f 16/6/1 12/6/1 15/6/1
f 17/6/1 14/6/1 13/6/1
f 17/7/1 13/7/1 16/7/1
f 18/6/1 14/6/1 17/6/1
f 19/7/1 16/7/1 15/7/1
f 19/7/1 17/7/1 16/7/1
f 19/7/1 18/7/1 17/7/1
f 20/7/1 18/7/1 19/7/1
f 21/6/1 20/6/1 19/6/1
f 22/6/1 20/6/1 21/6/1
f 23/7/1 22/7/1 21/7/1
f 24/7/1 22/7/1 23/7/1
f 29/6/1 26/6/1 25/6/1
f 30/6/1 26/6/1 29/6/1
f 31/6/1 28/6/1 27/6/1
f 32/6/1 28/6/1 31/6/1
f 33/7/1 30/7/1 29/7/1
f 34/7/1 32/7/1 31/7/1
f 35/7/1 33/7/1 29/7/1
f 35/1/1 34/1/1 33/1/1
f 36/7/1 32/7/1 34/7/1
f 36/1/1 34/1/1 35/1/1
f 37/7/1 36/7/1 35/7/1
f 38/7/1 36/7/1 37/7/1
f 39/7/1 37/7/1 35/7/1
f 40/7/1 36/7/1 38/7/1
f 41/7/1 35/7/1 29/7/1
f 41/7/1 40/7/1 39/7/1
f 41/7/1 39/7/1 35/7/1
f 42/7/1 36/7/1 40/7/1
f 42/7/1 40/7/1 41/7/1
f 42/7/1 32/7/1 36/7/1
f 47/6/1 44/6/1 43/6/1
f 48/6/1 44/6/1 47/6/1
f 49/6/1 44/6/1 48/6/1
f 50/6/1 46/6/1 45/6/1
f 51/6/1 46/6/1 50/6/1
f 52/6/1 46/6/1 51/6/1
f 53/7/1 49/7/1 48/7/1
f 54/7/1 51/7/1 50/7/1
f 55/7/1 49/7/1 53/7/1
f 56/7/1 49/7/1 55/7/1
f 57/7/1 54/7/1 50/7/1
f 58/7/1 54/7/1 57/7/1
f 61/1/1 60/1/1 59/1/1
f 62/1/1 60/1/1 61/1/1
f 67/7/1 64/7/1 63/7/1
f 68/7/1 64/7/1 67/7/1
f 69/7/1 66/7/1 65/7/1
f 70/7/1 66/7/1 69/7/1
f 75/1/1 72/1/1 71/1/1
f 76/1/1 72/1/1 75/1/1
f 77/1/1 74/1/1 73/1/1
f 78/1/1 74/1/1 77/1/1
f 83/1/1 80/1/1 79/1/1
f 84/1/1 80/1/1 83/1/1
f 85/1/1 82/1/1 81/1/1
f 86/1/1 82/1/1 85/1/1
f 87/6/2 88/6/2 89/6/2
f 89/6/2 88/6/2 90/6/2
f 89/7/2 90/7/2 91/7/2
f 91/7/2 90/7/2 92/7/2
f 91/6/2 92/6/2 93/6/2
f 93/6/2 92/6/2 94/6/2
f 95/1/2 96/1/2 97/1/2
f 97/1/2 96/1/2 98/1/2
f 99/6/2 100/6/2 103/6/2
f 103/6/2 100/6/2 104/6/2
f 104/6/2 100/6/2 105/6/2
f 101/6/2 102/6/2 106/6/2
f 106/6/2 102/6/2 107/6/2
f 107/6/2 102/6/2 108/6/2
f 104/7/2 105/7/2 109/7/2
f 106/7/2 107/7/2 110/7/2
f 109/7/2 105/7/2 111/7/2
f 111/7/2 105/7/2 112/7/2
f 106/7/2 110/7/2 113/7/2
f 113/7/2 110/7/2 114/7/2
f 115/6/2 116/6/2 117/6/2
f 117/6/2 116/6/2 118/6/2
f 119/6/2 120/6/2 123/6/2
f 123/6/2 120/6/2 124/6/2
f 121/6/2 122/6/2 125/6/2
f 125/6/2 122/6/2 126/6/2
f 123/7/2 124/7/2 127/7/2
f 125/7/2 126/7/2 128/7/2
f 123/7/2 127/7/2 129/7/2
f 127/1/2 128/1/2 129/1/2
f 128/7/2 126/7/2 130/7/2
f 129/1/2 128/1/2 130/1/2
f 123/7/2 129/7/2 132/7/2
f 129/7/2 130/7/2 132/7/2
f 132/7/2 130/7/2 133/7/2
f 133/7/2 130/7/2 134/7/2
f 134/7/2 130/7/2 135/7/2
f 130/7/2 126/7/2 136/7/2
f 135/7/2 130/7/2 136/7/2
f 136/7/2 126/7/2 137/7/2
f 131/1/2 132/1/2 139/1/2
f 132/7/2 133/7/2 140/7/2
f 139/1/2 132/1/2 140/1/2
f 134/7/2 135/7/2 141/7/2
f 141/7/2 135/7/2 142/7/2
f 136/7/2 137/7/2 143/7/2
f 137/1/2 138/1/2 143/1/2
f 143/1/2 138/1/2 144/1/2
f 140/7/2 133/7/2 146/7/2
f 136/7/2 143/7/2 147/7/2
f 145/1/2 146/1/2 149/1/2
f 146/7/2 133/7/2 150/7/2
f 149/1/2 146/1/2 150/1/2
f 150/7/2 133/7/2 151/7/2
f 151/7/2 133/7/2 152/7/2
f 136/7/2 147/7/2 157/7/2
f 157/7/2 147/7/2 158/7/2
f 147/1/2 148/1/2 159/1/2
f 158/7/2 147/7/2 159/7/2
f 159/1/2 148/1/2 160/1/2
f 151/2/2 152/2/2 161/2/2
f 152/2/2 153/2/2 161/2/2
f 155/7/2 156/7/2 162/7/2
f 161/2/2 153/2/2 162/2/2
f 153/7/2 154/7/2 162/7/2
f 154/7/2 155/7/2 162/7/2
f 157/2/2 158/2/2 163/2/2
f 156/2/2 157/2/2 163/2/2
f 158/7/2 159/7/2 164/7/2
f 163/2/2 158/2/2 164/2/2
f 161/8/2 162/8/2 165/8/2
f 162/7/2 156/7/2 166/7/2
f 165/8/2 162/8/2 166/8/2
f 163/8/2 164/8/2 167/8/2
f 164/7/2 159/7/2 168/7/2
f 167/8/2 164/8/2 168/8/2
f 151/2/2 161/2/2 169/2/2
f 150/7/2 151/7/2 169/7/2
f 161/8/2 165/8/2 170/8/2
f 169/2/2 161/2/2 170/2/2
f 165/1/2 166/1/2 171/1/2
f 170/8/2 165/8/2 171/8/2
f 166/7/2 156/7/2 172/7/2
f 171/1/2 166/1/2 172/1/2
f 156/2/2 163/2/2 173/2/2
f 172/7/2 156/7/2 173/7/2
f 163/8/2 167/8/2 174/8/2
f 173/2/2 163/2/2 174/2/2
f 167/1/2 168/1/2 175/1/2
f 174/8/2 167/8/2 175/8/2
f 168/7/2 159/7/2 176/7/2
f 175/1/2 168/1/2 176/1/2
f 150/7/2 169/7/2 177/7/2
f 174/7/2 175/7/2 177/7/2
f 175/7/2 176/7/2 177/7/2
f 169/7/2 170/7/2 177/7/2
f 170/7/2 171/7/2 177/7/2
f 173/7/2 174/7/2 177/7/2
f 172/7/2 173/7/2 177/7/2
f 171/7/2 172/7/2 177/7/2
f 177/7/2 176/7/2 178/7/2
f 178/7/2 176/7/2 179/7/2
f 179/7/2 176/7/2 180/7/2
f 180/7/2 176/7/2 181/7/2
f 176/7/2 159/7/2 182/7/2
f 181/7/2 176/7/2 182/7/2
f 150/7/2 177/7/2 183/7/2
f 177/6/2 178/6/2 183/6/2
f 178/7/2 179/7/2 184/7/2
f 183/6/2 178/6/2 184/6/2
f 180/7/2 181/7/2 185/7/2
f 181/6/2 182/6/2 185/6/2
f 182/7/2 159/7/2 186/7/2
f 185/6/2 182/6/2 186/6/2
f 183/7/2 184/7/2 187/7/2
f 150/7/2 183/7/2 187/7/2
f 184/7/2 179/7/2 188/7/2
f 187/7/2 184/7/2 188/7/2
f 180/7/2 185/7/2 189/7/2
f 185/7/2 186/7/2 189/7/2
f 186/7/2 159/7/2 190/7/2
f 189/7/2 186/7/2 190/7/2
f 191/1/2 192/1/2 195/1/2
f 193/1/2 194/1/2 196/1/2
f 191/1/2 195/1/2 197/1/2
f 195/1/2 196/1/2 197/1/2
f 196/1/2 194/1/2 198/1/2
f 197/1/2 196/1/2 198/1/2
f 191/1/2 197/1/2 199/1/2
f 197/5/2 198/5/2 200/5/2
f 199/1/2 197/1/2 200/1/2
f 198/1/2 194/1/2 201/1/2
f 200/5/2 198/5/2 201/5/2
f 201/1/2 194/1/2 202/1/2
f 207/1/3 204/1/3 203/1/3
f 208/1/3 204/1/3 207/1/3
f 209/1/3 206/1/3 205/1/3
f 210/1/3 206/1/3 209/1/3
f 214/6/3 212/6/3 211/6/3
f 215/7/3 213/7/3 212/7/3
f 215/6/3 212/6/3 214/6/3
f 216/7/3 213/7/3 215/7/3
f 218/1/3 216/1/3 215/1/3
f 219/7/3 213/7/3 216/7/3
f 219/1/3 216/1/3 218/1/3
f 220/7/3 219/7/3 218/7/3
f 220/7/3 213/7/3 219/7/3
f 222/7/3 220/7/3 218/7/3
f 222/7/3 221/7/3 220/7/3
f 223/7/3 221/7/3 222/7/3
f 224/7/3 221/7/3 223/7/3
f 225/7/3 221/7/3 224/7/3
f 226/6/3 218/6/3 217/6/3
f 227/7/3 222/7/3 218/7/3
f 227/6/3 218/6/3 226/6/3
f 228/7/3 222/7/3 227/7/3
f 229/7/3 224/7/3 223/7/3
f 230/7/3 224/7/3 229/7/3
f 231/7/3 221/7/3 225/7/3
f 232/7/3 221/7/3 231/7/3
f 235/1/3 234/1/3 233/1/3
f 236/1/3 234/1/3 235/1/3
f 247/7/3 238/7/3 237/7/3
f 248/6/3 239/6/3 238/6/3
f 248/7/3 238/7/3 247/7/3
f 249/7/3 246/7/3 245/7/3
f 249/6/3 245/6/3 244/6/3
f 250/7/3 246/7/3 249/7/3
f 251/6/3 248/6/3 247/6/3
f 252/6/3 239/6/3 248/6/3
f 252/6/3 248/6/3 251/6/3
f 252/7/3 240/7/3 239/7/3
f 253/6/3 250/6/3 249/6/3
f 253/7/3 244/7/3 243/7/3
f 253/6/3 249/6/3 244/6/3
f 254/6/3 250/6/3 253/6/3
f 255/7/3 252/7/3 251/7/3
f 256/7/3 240/7/3 252/7/3
f 256/7/3 252/7/3 255/7/3
f 256/6/3 241/6/3 240/6/3
f 257/7/3 242/7/3 241/7/3
f 257/6/3 241/6/3 256/6/3
f 258/6/3 243/6/3 242/6/3
f 258/7/3 242/7/3 257/7/3
f 259/7/3 254/7/3 253/7/3
f 259/6/3 243/6/3 258/6/3
f 259/7/3 253/7/3 243/7/3
f 260/7/3 254/7/3 259/7/3
f 261/6/3 256/6/3 255/6/3
f 262/6/3 256/6/3 261/6/3
f 263/6/3 260/6/3 259/6/3
f 264/6/3 260/6/3 263/6/3
f 265/7/3 264/7/3 263/7/3
f 266/7/3 264/7/3 265/7/3
f 267/6/3 266/6/3 265/6/3
f 268/6/3 266/6/3 267/6/3
f 269/7/3 268/7/3 267/7/3
f 270/7/3 268/7/3 269/7/3
f 271/6/3 270/6/3 269/6/3
f 272/6/3 270/6/3 271/6/3
f 273/7/3 272/7/3 271/7/3
f 274/7/3 272/7/3 273/7/3
f 275/6/3 274/6/3 273/6/3
f 276/6/3 274/6/3 275/6/3
f 279/1/3 278/1/3 277/1/3
f 280/1/3 278/1/3 279/1/3
f 283/7/3 282/7/3 281/7/3
f 284/7/3 282/7/3 283/7/3
f 288/7/3 287/7/3 286/7/3
f 290/6/3 286/6/3 285/6/3
f 291/7/3 289/7/3 288/7/3
f 291/6/3 286/6/3 290/6/3
f 291/7/3 288/7/3 286/7/3
f 292/7/3 289/7/3 291/7/3
f 296/7/3 295/7/3 294/7/3
f 297/7/3 295/7/3 296/7/3
f 298/6/3 294/6/3 293/6/3
f 299/7/3 296/7/3 294/7/3
f 299/6/3 294/6/3 298/6/3
f 300/7/3 296/7/3 299/7/3
f 304/1/3 302/1/3 301/1/3
f 305/7/3 303/7/3 302/7/3
f 305/1/3 302/1/3 304/1/3
f 306/7/3 303/7/3 305/7/3
f 307/1/4 308/1/4 310/1/4
f 308/7/4 309/7/4 311/7/4
f 310/1/4 308/1/4 311/1/4
f 311/7/4 309/7/4 312/7/4
f 314/7/4 315/7/4 316/7/4
f 313/6/4 314/6/4 318/6/4
f 316/7/4 317/7/4 319/7/4
f 318/6/4 314/6/4 319/6/4
f 314/7/4 316/7/4 319/7/4
f 319/7/4 317/7/4 320/7/4
f 322/7/4 323/7/4 324/7/4
f 324/7/4 323/7/4 325/7/4
f 321/6/4 322/6/4 326/6/4
f 322/7/4 324/7/4 327/7/4
f 326/6/4 322/6/4 327/6/4
f 327/7/4 324/7/4 328/7/4
f 329/7/4 330/7/4 331/7/4
f 331/7/4 330/7/4 332/7/4
f 333/1/4 334/1/4 335/1/4
f 335/1/4 334/1/4 336/1/4
f 337/7/4 338/7/4 347/7/4
f 338/6/4 339/6/4 348/6/4
f 347/7/4 338/7/4 348/7/4
f 345/7/4 346/7/4 349/7/4
f 344/6/4 345/6/4 349/6/4
f 349/7/4 346/7/4 350/7/4
f 347/6/4 348/6/4 351/6/4
f 348/6/4 339/6/4 352/6/4
f 351/6/4 348/6/4 352/6/4
f 339/7/4 340/7/4 352/7/4
f 349/6/4 350/6/4 353/6/4
f 343/7/4 344/7/4 353/7/4
f 344/6/4 349/6/4 353/6/4
f 353/6/4 350/6/4 354/6/4
f 351/7/4 352/7/4 355/7/4
f 352/7/4 340/7/4 356/7/4
f 355/7/4 352/7/4 356/7/4
f 340/6/4 341/6/4 356/6/4
f 341/7/4 342/7/4 357/7/4
f 356/6/4 341/6/4 357/6/4
f 342/6/4 343/6/4 358/6/4
f 357/7/4 342/7/4 358/7/4
f 353/7/4 354/7/4 359/7/4
f 358/6/4 343/6/4 359/6/4
f 343/7/4 353/7/4 359/7/4
f 359/7/4 354/7/4 360/7/4
f 355/6/4 356/6/4 361/6/4
f 361/6/4 356/6/4 362/6/4
f 359/6/4 360/6/4 363/6/4
f 363/6/4 360/6/4 364/6/4
f 363/7/4 364/7/4 365/7/4
f 365/7/4 364/7/4 366/7/4
f 365/6/4 366/6/4 367/6/4
f 367/6/4 366/6/4 368/6/4
f 367/7/4 368/7/4 369/7/4
f 369/7/4 368/7/4 370/7/4
f 369/6/4 370/6/4 371/6/4
f 371/6/4 370/6/4 372/6/4
f 371/7/4 372/7/4 373/7/4
f 373/7/4 372/7/4 374/7/4
f 373/6/4 374/6/4 375/6/4
f 375/6/4 374/6/4 376/6/4
f 377/1/4 378/1/4 379/1/4
f 379/1/4 378/1/4 380/1/4
f 381/6/4 382/6/4 384/6/4
f 382/7/4 383/7/4 385/7/4
f 384/6/4 382/6/4 385/6/4
f 385/7/4 383/7/4 386/7/4
f 385/1/4 386/1/4 388/1/4
f 386/7/4 383/7/4 389/7/4
f 388/1/4 386/1/4 389/1/4
f 388/7/4 389/7/4 390/7/4
f 389/7/4 383/7/4 390/7/4
f 388/7/4 390/7/4 392/7/4
f 390/7/4 391/7/4 392/7/4
f 392/7/4 391/7/4 393/7/4
f 393/7/4 391/7/4 394/7/4
f 394/7/4 391/7/4 395/7/4
f 387/6/4 388/6/4 396/6/4
f 388/7/4 392/7/4 397/7/4
f 396/6/4 388/6/4 397/6/4
f 397/7/4 392/7/4 398/7/4
f 393/7/4 394/7/4 399/7/4
f 399/7/4 394/7/4 400/7/4
f 395/7/4 391/7/4 401/7/4
f 401/7/4 391/7/4 402/7/4
f 403/1/4 404/1/4 407/1/4
f 407/1/4 404/1/4 408/1/4
f 405/1/4 406/1/4 409/1/4
f 409/1/4 406/1/4 410/1/4
f 415/6/5 412/6/5 411/6/5
f 416/6/5 412/6/5 415/6/5
f 417/6/5 414/6/5 413/6/5
f 418/6/5 414/6/5 417/6/5
f 423/6/5 420/6/5 419/6/5
f 424/6/5 420/6/5 423/6/5
f 425/6/5 422/6/5 421/6/5
f 426/6/5 422/6/5 425/6/5
f 429/1/5 428/1/5 427/1/5
f 430/1/5 428/1/5 429/1/5
f 433/1/5 432/1/5 431/1/5
f 434/1/5 432/1/5 433/1/5
f 439/1/5 436/1/5 435/1/5
f 440/1/5 436/1/5 439/1/5
f 441/1/5 438/1/5 437/1/5
f 442/1/5 438/1/5 441/1/5
f 446/7/5 444/7/5 443/7/5
f 447/7/5 444/7/5 446/7/5
f 449/7/5 446/7/5 445/7/5
f 449/7/5 448/7/5 447/7/5
f 449/7/5 447/7/5 446/7/5
f 450/7/5 448/7/5 449/7/5
f 451/7/5 448/7/5 450/7/5
f 452/7/5 448/7/5 451/7/5
f 453/7/5 451/7/5 450/7/5
f 454/7/5 451/7/5 453/7/5
f 457/1/5 456/1/5 455/1/5
f 458/1/5 456/1/5 457/1/5
f 461/1/5 460/1/5 459/1/5
f 462/1/5 460/1/5 461/1/5
f 465/1/5 464/1/5 463/1/5
f 466/1/5 464/1/5 465/1/5
f 469/1/5 468/1/5 467/1/5
f 470/1/5 468/1/5 469/1/5
f 473/1/5 472/1/5 471/1/5
f 474/1/5 472/1/5 473/1/5
f 477/1/5 476/1/5 475/1/5
f 478/1/5 476/1/5 477/1/5
f 481/1/5 480/1/5 479/1/5
f 482/1/5 480/1/5 481/1/5
f 488/7/5 484/7/5 483/7/5
f 489/6/5 485/6/5 484/6/5
f 489/7/5 484/7/5 488/7/5
f 490/7/5 486/7/5 485/7/5
f 490/6/5 485/6/5 489/6/5
f 491/6/5 487/6/5 486/6/5
f 491/7/5 486/7/5 490/7/5
f 492/6/5 487/6/5 491/6/5
f 501/6/5 494/6/5 493/6/5
f 502/7/5 495/7/5 494/7/5
f 502/6/5 494/6/5 501/6/5
f 503/6/5 496/6/5 495/6/5
f 503/7/5 495/7/5 502/7/5
f 504/7/5 497/7/5 496/7/5
f 504/6/5 496/6/5 503/6/5
f 505/6/5 498/6/5 497/6/5
f 505/7/5 497/7/5 504/7/5
f 506/7/5 499/7/5 498/7/5
f 506/6/5 498/6/5 505/6/5
f 507/6/5 500/6/5 499/6/5
f 507/7/5 499/7/5 506/7/5
f 508/6/5 500/6/5 507/6/5
f 509/1/6 510/1/6 511/1/6
f 511/1/6 510/1/6 512/1/6
f 513/1/6 514/1/6 515/1/6
f 515/1/6 514/1/6 516/1/6
f 517/1/6 518/1/6 519/1/6
f 519/1/6 518/1/6 520/1/6
f 521/1/6 522/1/6 523/1/6
f 523/1/6 522/1/6 524/1/6
f 524/1/6 522/1/6 525/1/6
f 524/5/6 525/5/6 526/5/6
f 526/5/6 525/5/6 527/5/6
f 526/1/6 527/1/6 528/1/6
f 528/1/6 527/1/6 529/1/6
f 529/1/6 527/1/6 530/1/6
f 531/1/6 532/1/6 533/1/6
f 533/1/6 532/1/6 534/1/6
f 535/6/6 536/6/6 537/6/6
f 537/6/6 536/6/6 538/6/6
f 539/7/6 540/7/6 541/7/6
f 541/7/6 540/7/6 542/7/6
f 542/7/6 540/7/6 543/7/6
f 543/7/6 540/7/6 544/7/6
f 544/7/6 540/7/6 545/7/6
f 545/7/6 540/7/6 546/7/6
f 546/7/6 540/7/6 547/7/6
f 546/7/6 547/7/6 549/7/6
f 547/7/6 548/7/6 549/7/6
f 549/7/6 548/7/6 550/7/6
f 539/7/6 541/7/6 551/7/6
f 541/6/6 542/6/6 551/6/6
f 542/7/6 543/7/6 552/7/6
f 551/6/6 542/6/6 552/6/6
f 543/6/6 544/6/6 553/6/6
f 552/7/6 543/7/6 553/7/6
f 544/7/6 545/7/6 554/7/6
f 553/6/6 544/6/6 554/6/6
f 545/6/6 546/6/6 555/6/6
f 554/7/6 545/7/6 555/7/6
f 546/7/6 549/7/6 556/7/6
f 555/6/6 546/6/6 556/6/6
f 554/7/6 555/7/6 557/7/6
f 539/7/6 551/7/6 557/7/6
f 555/7/6 556/7/6 557/7/6
f 553/7/6 554/7/6 557/7/6
f 552/7/6 553/7/6 557/7/6
f 551/7/6 552/7/6 557/7/6
f 556/7/6 549/7/6 558/7/6
f 557/7/6 556/7/6 558/7/6
f 559/7/6 560/7/6 561/7/6
f 561/7/6 560/7/6 562/7/6
f 563/7/6 564/7/6 565/7/6
f 565/7/6 564/7/6 566/7/6
f 569/7/6 570/7/6 578/7/6
f 570/6/6 571/6/6 578/6/6
f 571/7/6 572/7/6 579/7/6
f 578/6/6 571/6/6 579/6/6
f 573/7/6 574/7/6 580/7/6
f 574/6/6 575/6/6 580/6/6
f 575/7/6 576/7/6 581/7/6
f 580/6/6 575/6/6 581/6/6
f 569/7/6 578/7/6 582/7/6
f 578/7/6 579/7/6 582/7/6
f 579/7/6 572/7/6 583/7/6
f 582/7/6 579/7/6 583/7/6
f 573/7/6 580/7/6 584/7/6
f 580/7/6 581/7/6 584/7/6
f 581/7/6 576/7/6 585/7/6
f 584/7/6 581/7/6 585/7/6
f 567/7/6 568/7/6 586/7/6
f 568/6/6 569/6/6 587/6/6
f 586/7/6 568/7/6 587/7/6
f 569/7/6 582/7/6 588/7/6
f 587/6/6 569/6/6 588/6/6
f 582/6/6 583/6/6 589/6/6
f 588/7/6 582/7/6 589/7/6
f 583/7/6 572/7/6 590/7/6
f 589/6/6 583/6/6 590/6/6
f 572/6/6 573/6/6 591/6/6
f 590/7/6 572/7/6 591/7/6
f 573/7/6 584/7/6 592/7/6
f 591/6/6 573/6/6 592/6/6
f 584/6/6 585/6/6 593/6/6
f 592/7/6 584/7/6 593/7/6
f 585/7/6 576/7/6 594/7/6
f 593/6/6 585/6/6 594/6/6
f 576/6/6 577/6/6 595/6/6
f 594/7/6 576/7/6 595/7/6
f 595/6/6 577/6/6 596/6/6
